<?xml version="1.0" standalone="no"?>
<!DOCTYPE svg PUBLIC "-//W3C//DTD SVG 20010904//EN"
 "http://www.w3.org/TR/2001/REC-SVG-20010904/DTD/svg10.dtd">
<svg version="1.0" xmlns="http://www.w3.org/2000/svg"
 width="1525.000000pt" height="1609.000000pt" viewBox="0 0 1525.000000 1609.000000"
 preserveAspectRatio="xMidYMid meet">
<metadata>
Created by potrace 1.16, written by Peter Selinger 2001-2019
</metadata>
<g transform="translate(0.000000,1609.000000) scale(0.100000,-0.100000)"
fill="#000000" stroke="none">
<path d="M8117 13893 c-4 -3 -7 -558 -7 -1232 0 -805 -4 -1241 -11 -1271 -19
-82 -68 -169 -132 -234 -138 -138 -331 -187 -514 -131 -50 15 -53 18 -73 73
-37 96 -45 178 -26 263 46 206 196 365 386 409 65 16 177 18 238 7 l42 -9 0
285 0 284 -46 7 c-26 3 -82 6 -125 6 l-79 0 0 109 c0 129 10 121 -150 121
-237 0 -436 -59 -627 -186 -415 -276 -579 -797 -402 -1276 58 -157 165 -307
301 -422 34 -28 109 -95 167 -149 242 -225 460 -321 758 -334 85 -4 159 -2
210 7 462 74 819 425 898 884 12 73 15 203 15 752 l0 664 85 -56 c204 -133
436 -207 713 -229 l72 -5 0 290 0 290 -56 0 c-30 0 -86 7 -125 16 l-69 16 0
93 0 94 -47 5 c-168 20 -322 65 -393 116 -83 59 -180 313 -180 472 l0 47 -112
3 -113 3 -12 55 c-6 30 -12 81 -12 113 l-1 57 -283 0 c-156 0 -287 -3 -290 -7z"/>
<path d="M7179 9998 l-35 -153 -1354 3 c-1436 3 -2045 -6 -2190 -33 -430 -78
-721 -279 -885 -610 -59 -120 -94 -227 -119 -375 -32 -182 -40 -775 -40 -2945
1 -2313 8 -2718 47 -2905 28 -130 83 -288 129 -370 68 -123 187 -259 300 -343
26 -19 74 -64 107 -100 113 -120 264 -219 439 -288 l107 -42 4207 6 4206 5 89
38 c166 71 270 142 389 265 204 212 309 490 371 989 17 136 18 290 18 2550 0
2543 1 2463 -46 2745 -39 231 -87 392 -167 550 -80 160 -179 285 -300 376 -31
24 -93 80 -137 125 -173 173 -388 279 -670 329 -141 25 -543 35 -1355 34
-1937 -2 -2010 -1 -2010 20 0 48 -6 51 -115 51 l-103 0 -12 73 c-7 39 -15 90
-19 112 l-7 40 -405 3 -406 2 -34 -152z m4376 -1580 c3 -24 5 -1168 3 -2543
-3 -1967 -6 -2508 -16 -2536 -31 -91 -89 -138 -196 -160 -72 -14 -6144 -24
-6936 -12 l-465 8 -5 100 c-3 55 -3 1194 0 2530 5 2295 6 2433 23 2483 34 101
95 144 227 161 36 5 1706 9 3712 10 l3647 1 6 -42z"/>
<path d="M4832 7409 c-191 -24 -301 -102 -348 -245 -18 -57 -19 -95 -19 -904
l0 -845 23 -74 c29 -90 90 -158 167 -185 74 -26 77 -29 92 -71 50 -144 170
-193 494 -202 433 -12 564 53 611 302 10 54 13 241 13 820 0 679 -2 759 -18
845 -31 166 -86 251 -192 302 -33 15 -65 28 -71 28 -6 0 -19 19 -28 43 -36 95
-116 157 -232 182 -76 16 -381 19 -492 4z"/>
<path d="M9947 7399 c-161 -23 -261 -117 -287 -268 -8 -47 -10 -318 -8 -916
l3 -850 33 -67 c37 -76 85 -119 169 -153 48 -20 58 -29 78 -71 42 -86 98 -134
197 -167 54 -17 96 -21 289 -25 143 -2 253 0 300 7 139 22 227 82 278 190 l26
56 3 874 c3 950 3 942 -53 1031 -31 49 -91 94 -155 115 -44 15 -50 21 -79 80
-51 102 -117 145 -254 164 -90 13 -454 13 -540 0z"/>
<path d="M6788 5441 c-116 -6 -118 -6 -150 -38 -29 -29 -33 -41 -40 -110 -3
-43 -7 -125 -7 -183 -1 -177 33 -220 174 -220 l75 0 0 -55 c0 -69 18 -113 59
-148 31 -26 38 -27 135 -27 l103 0 5 -108 c7 -170 43 -214 179 -221 l79 -3 0
-62 c0 -49 5 -69 24 -97 47 -69 50 -69 469 -69 373 0 374 0 408 23 18 12 44
38 56 56 22 33 23 42 23 257 l0 224 233 0 c330 0 327 -3 327 283 0 164 -1 176
-23 208 -32 49 -79 69 -159 69 l-68 0 0 58 c0 66 -22 116 -63 146 -27 20 -40
21 -215 18 -285 -5 -282 -1 -282 -329 l0 -223 -365 0 -365 0 0 113 c0 93 -3
117 -20 144 -28 47 -67 63 -155 63 l-75 0 0 70 c0 89 -18 125 -73 151 -44 20
-65 20 -289 10z m1592 -666 l0 -115 -125 0 -125 0 0 115 0 115 125 0 125 0 0
-115z"/>
<path d="M2019 7395 c-334 -46 -489 -155 -548 -388 -49 -190 -74 -940 -51
-1522 10 -243 25 -469 36 -530 28 -161 106 -276 232 -343 44 -24 67 -44 86
-76 40 -69 125 -140 210 -175 89 -37 212 -67 319 -79 l77 -8 0 1449 0 1450
-82 -6 c-46 -4 -100 -9 -120 -13 l-38 -7 0 132 c0 99 -3 131 -12 130 -7 -1
-56 -7 -109 -14z"/>
<path d="M13103 7363 c-10 -4 -13 -300 -13 -1434 l0 -1429 23 0 c25 0 180 26
208 35 18 6 19 -2 19 -131 l0 -137 53 7 c390 51 588 181 652 431 31 122 40
335 40 1015 0 862 -11 1001 -91 1165 -36 74 -123 162 -191 194 -40 18 -59 36
-89 83 -91 140 -257 209 -497 207 -56 0 -108 -3 -114 -6z"/>
</g>
</svg>
